<svg width="87" height="83" viewBox="0 0 87 83" fill="none" xmlns="http://www.w3.org/2000/svg">
<path d="M69.502 4.11559C71.4288 3.6823 73.6572 3.62944 75.5635 4.05504L75.9405 4.14684C76.4259 4.27475 76.7745 4.63162 77.0675 5.61461C77.2129 6.10254 77.3145 6.64935 77.42 7.265C77.5187 7.84102 77.6266 8.51814 77.7862 9.11754V9.11852C77.9117 9.59773 78.1228 10.1163 78.2081 10.3588C78.3138 10.6595 78.3584 10.8533 78.3614 11.0482C78.3713 11.6738 78.476 12.3889 78.5108 12.7826V12.7836C78.6503 14.3514 79.0705 15.9007 79.376 17.2416L79.4991 17.8031C79.7048 18.7981 79.8102 19.813 79.9356 20.931C80.058 22.0219 80.1982 23.2025 80.4844 24.3832C80.6647 25.1263 80.7944 25.8992 80.92 26.7201C81.0121 27.3218 81.1047 27.9638 81.212 28.6068L81.3243 29.2484C81.5605 30.5135 81.5869 31.8343 81.6153 33.3041C81.6428 34.7285 81.6731 36.3019 81.9757 37.848C82.0901 38.4326 82.1166 39.0488 82.1339 39.7826C82.1503 40.4801 82.1573 41.3162 82.2716 42.1527C82.3892 43.0121 82.6152 43.8167 82.8008 44.5004C82.9948 45.2147 83.1516 45.819 83.2208 46.4388C83.2621 46.8129 83.2557 46.9439 83.3038 47.4515C83.3405 47.8394 83.4044 48.319 83.5635 48.8011C83.6695 49.1221 83.8109 49.422 83.8565 49.5287C83.9087 49.6508 83.9257 49.7066 83.9366 49.7806V49.7826C83.9523 49.888 83.9622 49.9858 83.9649 50.0726C83.9656 50.0941 83.9641 50.1146 83.9639 50.1332C83.9141 50.1489 83.8576 50.1668 83.793 50.1849C83.6365 50.2288 83.4895 50.2653 83.3077 50.3129C83.2298 50.3332 83.1387 50.3567 83.044 50.3841L82.7589 50.4759C82.3471 50.625 82.0398 50.6387 81.2979 50.7347H81.2969C79.4792 50.9705 77.5973 51.5512 76.0626 51.8959C74.9054 52.1557 73.8554 52.5823 72.9171 52.9779C71.9457 53.3874 71.112 53.7541 70.2266 54.014H70.2257C68.4629 54.5319 66.9447 55.509 65.6192 56.5619C64.3173 57.596 63.0719 58.8155 62.0001 59.7875V59.7884C60.6828 60.9834 59.2592 62.1772 57.9874 63.7103L57.9854 63.7123C56.8947 65.032 55.7288 66.2899 54.4942 67.4798V67.4808C52.0001 69.8875 49.2234 71.9077 46.3526 74.1029V74.1039C44.9925 75.1439 43.4626 75.8607 41.7872 76.4759C40.9481 76.784 40.0867 77.0623 39.1944 77.3451C38.5321 77.555 37.8484 77.7682 37.1632 77.9955L36.4786 78.2279C35.9267 78.4187 35.3424 78.6495 34.7852 78.8666C34.2149 79.0887 33.6571 79.3033 33.1016 79.4877C31.9662 79.8646 30.9936 80.0617 30.1846 79.9838L30.1817 79.9828C29.4924 79.9178 28.7676 79.9034 28.168 79.8773C27.5344 79.8497 26.9778 79.8082 26.46 79.7074C23.0194 79.036 19.6172 78.5016 16.6475 77.2435C14.8725 76.4903 13.5247 76.0715 12.2217 75.1752C11.8834 74.9409 11.747 74.7082 11.5362 73.9476L11.4405 73.5863C10.8561 71.3126 10.3796 69.1167 10.0479 66.8353L9.91413 65.8519C9.74924 64.5356 9.74612 63.2229 9.70026 61.7523C9.6613 60.503 9.59097 59.169 9.32526 57.8216L9.19929 57.2435C8.85551 55.8157 8.6242 54.3541 8.41413 52.8343L8.29792 52.0629C8.04379 50.5071 7.67776 48.885 7.39948 47.4359L7.26862 46.7269C7.05038 45.4634 6.69885 44.1647 6.38581 42.972L6.09187 41.8187C5.48034 39.2863 5.36197 36.8415 5.48542 34.2318C6.02899 34.4409 6.6109 34.642 7.15046 34.8236L7.15437 34.8246C9.66486 35.6628 12.1076 35.9851 14.5919 36.2201V36.2211C17.607 36.5064 20.495 35.645 23.0967 34.4545C25.684 33.2705 28.1548 31.6777 30.2569 30.4095V30.4086C31.1676 29.8588 32.0182 29.2365 32.8048 28.6654C33.6099 28.0807 34.356 27.5439 35.1387 27.0843L35.1417 27.0824C35.73 26.7348 36.2958 26.3639 36.8321 26.0082C37.3775 25.6463 37.8873 25.3043 38.4083 24.9808L38.4102 24.9798C39.8055 24.11 41.2404 23.1493 42.5723 22.1498L42.5753 22.1478C44.3059 20.8431 45.556 19.2121 46.7403 17.8089C48.6341 15.5665 51.2563 13.7542 53.8331 11.8285C55.9052 10.2799 58.3152 8.99582 60.7637 7.80504L61.8145 7.30016C64.3668 6.08517 66.5997 4.86523 69.0167 4.23375L69.502 4.11559Z" fill="var(--color-primary)" stroke="#121312" stroke-width="3"/>
<path d="M77.1659 1.61191C67.6688 0.688285 58.5603 5.62192 51.0841 11.5514C43.6078 17.481 36.9935 24.595 28.7109 29.3347C20.4282 34.0745 9.63554 36.0328 1.50007 31.048C4.76624 46.3645 7.70192 60.9927 9.28301 76.4061C22.1926 83.254 39.0717 81.7548 50.5729 72.7407C55.1558 69.1467 58.8573 64.5444 63.2992 60.7723C69.4111 55.5726 76.905 52.0129 84.9453 50.794C82.2846 34.6077 80.0522 18.3508 77.1659 1.61191Z" fill="var(--color-primary)" stroke="#121312" stroke-width="3" stroke-linecap="round" stroke-linejoin="round"/>
<path d="M11.6767 49.2121C12.2842 54.4771 13.1544 59.7112 14.2872 64.9146L11.6767 49.2121Z" fill="var(--color-primary)"/>
<path d="M11.6767 49.2121C12.2842 54.4771 13.1544 59.7112 14.2872 64.9146" stroke="#121312" stroke-width="2" stroke-linecap="round" stroke-linejoin="round"/>
<path d="M75.0437 36.1914C74.276 29.1047 72.91 23.3012 72.1265 16.0744L75.0437 36.1914Z" fill="var(--color-primary)"/>
<path d="M75.0437 36.1914C74.276 29.1047 72.91 23.3012 72.1265 16.0744" stroke="#121312" stroke-width="2" stroke-linecap="round" stroke-linejoin="round"/>
<path d="M19.4314 39.3827C37.9392 41.1859 46.0006 17.0059 64.1911 11.5329L19.4314 39.3827Z" fill="var(--color-primary)"/>
<path d="M19.4314 39.3827C37.9392 41.1859 46.0006 17.0059 64.1911 11.5329" stroke="#121312" stroke-width="2" stroke-linecap="round" stroke-linejoin="round"/>
<path d="M25.2851 71.81C43.5902 76.4334 51.9504 52.0508 69.0515 47.7676L25.2851 71.81Z" fill="var(--color-primary)"/>
<path d="M25.2851 71.81C43.5902 76.4334 51.9504 52.0508 69.0515 47.7676" stroke="#121312" stroke-width="2" stroke-linecap="round" stroke-linejoin="round"/>
<path d="M38.2415 50.4891C39.173 51.6119 39.9697 52.3266 41.4451 52.651C44.0617 53.2273 47.1428 52.3645 48.0259 49.5082C48.4709 48.069 48.0682 46.376 46.7268 45.5757C45.4524 44.8169 43.7453 45.336 42.3616 45.3448C40.4448 45.358 37.6263 46.8325 38.0766 42.232C38.1789 41.192 38.7403 40.4438 39.4497 39.7943C40.1953 39.083 40.9374 38.3224 41.9122 37.9338C42.738 37.6051 43.7497 37.2525 44.6548 37.3803C45.4886 37.4975 46.1707 38.2088 46.7268 38.7816C46.9687 39.0149 47.1987 39.2603 47.416 39.5166C47.5244 39.6541 47.6399 39.8022 47.7403 39.945C47.8108 40.0463 47.8619 40.2094 47.9712 40.2605" fill="var(--color-primary)"/>
<path d="M38.2415 50.4891C39.173 51.6119 39.9697 52.3266 41.4451 52.651C44.0617 53.2273 47.1428 52.3645 48.0259 49.5082C48.4709 48.069 48.0682 46.376 46.7268 45.5757C45.4524 44.8169 43.7453 45.336 42.3616 45.3448C40.4448 45.358 37.6263 46.8325 38.0766 42.232C38.1789 41.192 38.7403 40.4438 39.4497 39.7943C40.1953 39.083 40.9374 38.3224 41.9122 37.9338C42.738 37.6051 43.7497 37.2525 44.6548 37.3803C45.4886 37.4975 46.1707 38.2088 46.7268 38.7816C46.9687 39.0149 47.1987 39.2603 47.416 39.5166C47.5244 39.6541 47.6399 39.8022 47.7403 39.945C47.8108 40.0463 47.862 40.2094 47.9712 40.2605" stroke="#121312" stroke-width="3" stroke-linecap="round" stroke-linejoin="round"/>
<path d="M42.3502 35.8301C43.027 43.5337 43.2923 51.359 43.5902 54.745L42.3502 35.8301Z" fill="var(--color-primary)"/>
<path d="M42.3502 35.8301C43.027 43.5337 43.2923 51.359 43.5902 54.745" stroke="#121312" stroke-width="3" stroke-linecap="round" stroke-linejoin="round"/>
<path d="M11.2607 45.121C13.0792 45.121 14.5533 43.6468 14.5533 41.8284C14.5533 40.0099 13.0792 38.5357 11.2607 38.5357C9.44223 38.5357 7.96808 40.0099 7.96808 41.8284C7.96808 43.6468 9.44223 45.121 11.2607 45.121Z" fill="var(--color-primary)" stroke="#121312" stroke-width="2" stroke-linecap="round" stroke-linejoin="round"/>
<path d="M17.8459 74.2927C19.6644 74.2927 21.1385 72.8185 21.1385 71.0001C21.1385 69.1816 19.6644 67.7075 17.8459 67.7075C16.0275 67.7075 14.5533 69.1816 14.5533 71.0001C14.5533 72.8185 16.0275 74.2927 17.8459 74.2927Z" fill="var(--color-primary)" stroke="#121312" stroke-width="2" stroke-linecap="round" stroke-linejoin="round"/>
<path d="M75.4156 46.7073C77.234 46.7073 78.7082 45.2332 78.7082 43.4147C78.7082 41.5963 77.234 40.1221 75.4156 40.1221C73.5971 40.1221 72.123 41.5963 72.123 43.4147C72.123 45.2332 73.5971 46.7073 75.4156 46.7073Z" fill="var(--color-primary)" stroke="#121312" stroke-width="2" stroke-linecap="round" stroke-linejoin="round"/>
<path d="M70.4414 12.8214C72.2599 12.8214 73.734 11.3473 73.734 9.52881C73.734 7.71035 72.2599 6.2362 70.4414 6.2362C68.6229 6.2362 67.1488 7.71035 67.1488 9.52881C67.1488 11.3473 68.6229 12.8214 70.4414 12.8214Z" fill="var(--color-primary)" stroke="#121312" stroke-width="2" stroke-linecap="round" stroke-linejoin="round"/>
</svg>
