<svg width="172" height="50" viewBox="0 0 172 50" fill="none" xmlns="http://www.w3.org/2000/svg">
<rect x="1" y="1" width="48" height="48" rx="11" fill="url(#paint0_linear_3001_2)" stroke="url(#paint1_linear_3001_2)" stroke-width="2"/>
<path d="M25 9L15.5 25H25L34.0886 9.69282C34.2715 9.3849 34.7285 9.3849 34.9114 9.69282L44 25L35.1856 39.8453C34.7614 40.5598 33.9773 41 33.1288 41H25L34.5 25L25 25L15.9114 40.3072C15.7285 40.6151 15.2715 40.6151 15.0886 40.3072L6 25L14.8144 10.1547C15.2386 9.44017 16.0227 9 16.8712 9L25 9Z" fill="url(#paint2_linear_3001_2)"/>
<path d="M67.0693 25H76.278C77.3012 25 78.1384 24.1643 78.1384 23.1429V19.0571C78.1384 18.0357 77.3012 17.2 76.278 17.2H71.1621C70.697 17.2 70.1389 17.3857 69.7668 17.7571L65.6741 21.9357C65.395 22.2143 65.209 22.6786 65.209 23.1429C65.209 24.1643 66.0461 25 67.0693 25ZM63.3486 38H61.8603C60.8372 38 60 37.1643 60 36.1429V20.6357C60 20.1714 60.186 19.6143 60.5581 19.3357L67.2554 12.65C67.5344 12.1857 68.0925 12 68.5576 12H81.487C82.5102 12 83.3474 12.8357 83.3474 13.8571V36.1429C83.3474 37.1643 82.5102 38 81.487 38H80.0918C79.0686 38 78.2314 37.1643 78.2314 36.1429V32.15C78.2314 31.1286 77.3943 30.2929 76.3711 30.2929H67.0693C66.0461 30.2929 65.209 31.1286 65.209 32.15V36.1429C65.209 37.1643 64.3718 38 63.3486 38Z" fill="var(--color-secondary)"/>
<path d="M90.4167 38H89.0214C87.9982 38 87.1611 37.1643 87.1611 36.1429V13.8571C87.1611 12.8357 87.9982 12 89.0214 12H90.4167C91.4399 12 92.277 12.8357 92.277 13.8571V36.1429C92.277 37.1643 91.4399 38 90.4167 38Z" fill="var(--color-secondary)"/>
<path d="M118.601 13.8571V16.3643C118.601 16.8286 118.415 17.3857 118.043 17.6643L106.323 29.55C105.113 30.7571 105.951 32.8 107.625 32.8H116.741C117.764 32.8 118.601 33.6357 118.601 34.6571V36.1429C118.601 37.1643 117.764 38 116.741 38H97.207C96.1838 38 95.3466 37.1643 95.3466 36.1429V33.6357C95.3466 33.1714 95.5326 32.6143 95.9047 32.3357L107.625 20.45C108.834 19.2429 107.997 17.2 106.323 17.2H97.207C96.1838 17.2 95.3466 16.3643 95.3466 15.3429V13.8571C95.3466 12.8357 96.1838 12 97.207 12H116.741C117.764 12 118.601 12.8357 118.601 13.8571Z" fill="var(--color-secondary)"/>
<path d="M128.74 32.8H137.949C138.972 32.8 139.809 31.9643 139.809 30.9429V19.0571C139.809 18.0357 138.972 17.2 137.949 17.2H128.74C127.717 17.2 126.88 18.0357 126.88 19.0571V30.85C126.88 31.9643 127.717 32.8 128.74 32.8ZM141.669 38H125.019C124.554 38 123.996 37.8143 123.717 37.4429L122.229 35.9571C121.857 35.5857 121.671 35.1214 121.671 34.6571V15.4357C121.671 14.9714 121.857 14.5071 122.229 14.1357L123.717 12.65C123.996 12.1857 124.461 12 125.019 12H141.669C142.227 12 142.692 12.1857 143.065 12.5571L144.553 14.0429C144.925 14.4143 145.111 14.8786 145.111 15.3429V34.5643C145.111 35.0286 144.925 35.5857 144.553 35.8643L143.065 37.35C142.599 37.8143 142.134 38 141.669 38Z" fill="var(--color-secondary)"/>
<path d="M170.133 38H167.807C167.249 38 166.691 37.7214 166.319 37.2571L157.296 25.2786C156.18 23.7929 153.855 24.6286 153.855 26.3929V36.1429C153.855 37.1643 153.017 38 151.994 38H150.599C149.576 38 148.739 37.1643 148.739 36.1429V13.8571C148.739 12.8357 149.576 12 150.599 12H152.924C153.482 12 154.041 12.2786 154.413 12.7429L163.435 24.7214C164.552 26.2071 166.877 25.3714 166.877 23.6071V13.8571C166.877 12.8357 167.714 12 168.737 12H170.133C171.156 12 171.993 12.8357 171.993 13.8571V36.1429C172.086 37.1643 171.249 38 170.133 38Z" fill="var(--color-secondary)"/>
<defs>
<linearGradient id="paint0_linear_3001_2" x1="25" y1="0" x2="25" y2="50" gradientUnits="userSpaceOnUse">
<stop stop-color="var(--color-logo)" stop-opacity="0.15"/>
<stop offset="1" stop-color="var(--color-logo)" stop-opacity="0.08"/>
</linearGradient>
<linearGradient id="paint1_linear_3001_2" x1="25" y1="0" x2="25" y2="50" gradientUnits="userSpaceOnUse">
<stop stop-color="var(--color-logo)" stop-opacity="0.2"/>
<stop offset="1" stop-color="var(--color-logo)" stop-opacity="0.05"/>
</linearGradient>
<linearGradient id="paint2_linear_3001_2" x1="25" y1="9" x2="25" y2="41" gradientUnits="userSpaceOnUse">
<stop offset="0.331731" stop-color="var(--color-logo)"/>
<stop offset="1" stop-color="var(--color-logo)" stop-opacity="0.3"/>
</linearGradient>
</defs>
</svg>
