<svg width="21" height="18" viewBox="0 0 21 18" fill="none" xmlns="http://www.w3.org/2000/svg">
<path d="M13.852 14C13.852 15 15.352 17 15.852 17C17.352 17 18.685 15.333 19.352 14C20.019 12.333 19.852 8.167 17.852 2.5C16.395 1.485 14.852 1.16 13.352 1L12.38 2.923C11.0389 2.6915 9.66808 2.6915 8.327 2.923L7.352 1C5.852 1.16 4.309 1.485 2.852 2.5C0.852 8.167 0.685 12.333 1.352 14C2.019 15.333 3.352 17 4.852 17C5.352 17 6.852 15 6.852 14M5.352 13.5C8.852 14.5 11.852 14.5 15.352 13.5M6.352 9C6.352 9.26522 6.45735 9.51957 6.64489 9.70711C6.83243 9.89464 7.08678 10 7.352 10C7.61721 10 7.87157 9.89464 8.0591 9.70711C8.24664 9.51957 8.352 9.26522 8.352 9C8.352 8.73478 8.24664 8.48043 8.0591 8.29289C7.87157 8.10536 7.61721 8 7.352 8C7.08678 8 6.83243 8.10536 6.64489 8.29289C6.45735 8.48043 6.352 8.73478 6.352 9ZM12.352 9C12.352 9.26522 12.4574 9.51957 12.6449 9.70711C12.8324 9.89464 13.0868 10 13.352 10C13.6172 10 13.8716 9.89464 14.0591 9.70711C14.2466 9.51957 14.352 9.26522 14.352 9C14.352 8.73478 14.2466 8.48043 14.0591 8.29289C13.8716 8.10536 13.6172 8 13.352 8C13.0868 8 12.8324 8.10536 12.6449 8.29289C12.4574 8.48043 12.352 8.73478 12.352 9Z" stroke="var(--color-secondary)" stroke-width="2" stroke-linecap="round" stroke-linejoin="round"/>
</svg>
