<svg width="26" height="26" viewBox="0 0 26 26" fill="none" xmlns="http://www.w3.org/2000/svg">
<path d="M12.9998 0C14.011 6.14669e-05 14.9876 0.368425 15.747 1.03622L15.9472 1.22474L16.8547 2.13225C17.1038 2.37968 17.429 2.53588 17.7779 2.5756L17.9534 2.586H19.2535C20.316 2.58594 21.3383 2.99239 22.1107 3.72199C22.8831 4.4516 23.3471 5.44907 23.4075 6.50985L23.414 6.74648V8.04663C23.414 8.39767 23.5336 8.73961 23.7494 9.01264L23.8665 9.14266L24.7727 10.0502C25.5238 10.797 25.9617 11.8023 25.9973 12.8609C26.0328 13.9196 25.6632 14.9519 24.9638 15.7474L24.7753 15.9476L23.8678 16.8551C23.6203 17.1042 23.4641 17.4294 23.4244 17.7783L23.414 17.9538V19.2539C23.4141 20.3164 23.0076 21.3387 22.278 22.1111C21.5484 22.8835 20.5509 23.3475 19.4902 23.4079L19.2535 23.4144H17.9534C17.6028 23.4145 17.2625 23.5327 16.9874 23.7498L16.8573 23.8669L15.9498 24.7731C15.203 25.5242 14.1977 25.9621 13.1391 25.9977C12.0804 26.0332 11.0481 25.6636 10.2526 24.9642L10.0524 24.7757L9.14486 23.8682C8.8958 23.6207 8.57057 23.4645 8.22175 23.4248L8.04623 23.4144H6.74608C5.68357 23.4145 4.66131 23.008 3.88891 22.2784C3.11652 21.5488 2.65253 20.5513 2.5921 19.4905L2.5856 19.2539V17.9538C2.58548 17.6032 2.46732 17.2629 2.25016 16.9878L2.13315 16.8577L1.22694 15.9502C0.475822 15.2034 0.0378549 14.1981 0.00234125 13.1395C-0.0331725 12.0808 0.336442 11.0485 1.03582 10.253L1.22434 10.0528L2.13185 9.14526C2.37928 8.8962 2.53548 8.57097 2.5752 8.22215L2.5856 8.04663V6.74648L2.5921 6.50985C2.65015 5.48981 3.08151 4.5268 3.80395 3.80435C4.5264 3.08191 5.48941 2.65055 6.50945 2.5925L6.74608 2.586H8.04623C8.39677 2.58588 8.73706 2.46772 9.01224 2.25056L9.14225 2.13355L10.0498 1.22734C10.4363 0.838452 10.896 0.529818 11.4023 0.319186C11.9085 0.108554 12.4515 7.9408e-05 12.9998 0Z" fill="url(#paint0_linear_1086_555)"/>
<defs>
<linearGradient id="paint0_linear_1086_555" x1="12.9998" y1="0" x2="12.9998" y2="26" gradientUnits="userSpaceOnUse">
<stop stop-color="var(--color-rank2-start)"/>
<stop offset="1" stop-color="var(--color-rank2-end)"/>
</linearGradient>
</defs>
</svg>
