<svg width="21" height="18" viewBox="0 0 21 18" fill="none" xmlns="http://www.w3.org/2000/svg">
<path d="M19.9968 0.401114C19.5455 0.0401114 18.8235 -0.14039 18.282 0.130362L0.863629 7.16992C0.141623 7.44067 -0.21938 8.25292 0.141623 8.97493C0.322125 9.33593 0.592877 9.60668 0.863629 9.69694L1.94664 10.1482C2.30764 10.3287 2.75889 10.1482 2.93939 9.78719C3.1199 9.42618 2.93939 8.97493 2.48814 8.79443L1.76614 8.43343L18.8235 1.57437C18.9138 1.57437 18.9138 1.57437 19.004 1.57437C19.0943 1.57437 19.0943 1.66462 19.0943 1.75487L16.0257 16.2852C16.0257 16.3755 15.9355 16.4657 15.8452 16.556C15.755 16.556 15.6647 16.556 15.5745 16.4657L9.43744 11.7727L15.394 5.72591C15.6647 5.45515 15.6647 4.91365 15.394 4.6429C15.1232 4.37214 14.7622 4.37214 14.4915 4.55265L5.73717 9.69694C5.37616 9.87744 5.19566 10.3287 5.37616 10.6897C5.55666 11.0507 6.00792 11.2312 6.36892 11.0507C6.45917 11.0507 6.45917 10.9604 6.45917 10.9604L10.1594 8.79443L8.35444 10.5994C7.72268 11.1409 7.72268 12.1337 8.26419 12.7655C8.35444 12.8557 8.44469 12.8557 8.44469 12.946L14.4915 17.639C14.8525 17.9097 15.2135 18 15.5745 18C15.755 18 16.0257 18 16.2062 17.9097C16.838 17.7292 17.199 17.1877 17.3795 16.556L20.448 2.02563C20.7188 1.48412 20.5383 0.852368 19.9968 0.401114Z" fill="var(--color-secondary)"/>
</svg>
