<svg width="24" height="24" viewBox="0 0 24 24" fill="none" xmlns="http://www.w3.org/2000/svg">
<g clip-path="url(#clip0_1254_70)">
<path d="M5 21V5C5 4.46957 5.21071 3.96086 5.58579 3.58579C5.96086 3.21071 6.46957 3 7 3H17C17.5304 3 18.0391 3.21071 18.4142 3.58579C18.7893 3.96086 19 4.46957 19 5V21L16 19L14 21L12 19L10 21L8 19L5 21Z" stroke="white" stroke-width="2" stroke-linecap="round" stroke-linejoin="round"/>
<path d="M14.8 8C14.6188 7.68577 14.3557 7.42671 14.0386 7.25056C13.7215 7.07441 13.3625 6.9878 13 7H11C10.4696 7 9.96086 7.21072 9.58579 7.58579C9.21071 7.96086 9 8.46957 9 9C9 9.53044 9.21071 10.0391 9.58579 10.4142C9.96086 10.7893 10.4696 11 11 11H13C13.5304 11 14.0391 11.2107 14.4142 11.5858C14.7893 11.9609 15 12.4696 15 13C15 13.5304 14.7893 14.0391 14.4142 14.4142C14.0391 14.7893 13.5304 15 13 15H11C10.6375 15.0122 10.2785 14.9256 9.96142 14.7495C9.64435 14.5733 9.38115 14.3142 9.2 14" stroke="white" stroke-width="2" stroke-linecap="round" stroke-linejoin="round"/>
<path d="M12 6V16" stroke="white" stroke-width="2" stroke-linecap="round" stroke-linejoin="round"/>
</g>
<defs>
<clipPath id="clip0_1254_70">
<rect width="24" height="24" fill="white"/>
</clipPath>
</defs>
</svg>
