<svg width="52" height="52" viewBox="0 0 52 52" fill="none" xmlns="http://www.w3.org/2000/svg">
<path d="M23.2222 9.33333C23.2222 11.5435 24.6855 13.6631 27.2902 15.2259C29.8949 16.7887 33.4275 17.6667 37.1111 17.6667C40.7947 17.6667 44.3274 16.7887 46.932 15.2259C49.5367 13.6631 51 11.5435 51 9.33333M23.2222 9.33333C23.2222 7.1232 24.6855 5.00358 27.2902 3.44078C29.8949 1.87797 33.4275 1 37.1111 1C40.7947 1 44.3274 1.87797 46.932 3.44078C49.5367 5.00358 51 7.1232 51 9.33333M23.2222 9.33333V20.4444M51 9.33333V20.4444M23.2222 20.4444C23.2222 25.0472 29.4417 28.7778 37.1111 28.7778C44.7806 28.7778 51 25.0472 51 20.4444M23.2222 20.4444V31.5556M51 20.4444V31.5556M23.2222 31.5556C23.2222 36.1583 29.4417 39.8889 37.1111 39.8889C44.7806 39.8889 51 36.1583 51 31.5556M23.2222 31.5556V42.6667C23.2222 47.2694 29.4417 51 37.1111 51C44.7806 51 51 47.2694 51 42.6667V31.5556M12.1111 17.6667H5.16667C4.0616 17.6667 3.00179 18.1057 2.22039 18.8871C1.43899 19.6685 1 20.7283 1 21.8333C1 22.9384 1.43899 23.9982 2.22039 24.7796C3.00179 25.561 4.0616 26 5.16667 26H7.94444C9.04951 26 10.1093 26.439 10.8907 27.2204C11.6721 28.0018 12.1111 29.0616 12.1111 30.1667C12.1111 31.2717 11.6721 32.3315 10.8907 33.1129C10.1093 33.8943 9.04951 34.3333 7.94444 34.3333H1M6.55556 34.3333V37.1111M6.55556 14.8889V17.6667" stroke="url(#paint0_linear_1176_1704)" stroke-opacity="0.7" stroke-width="2" stroke-linecap="round" stroke-linejoin="round"/>
<defs>
<linearGradient id="paint0_linear_1176_1704" x1="51" y1="26" x2="1" y2="26" gradientUnits="userSpaceOnUse">
<stop stop-color="var(--color-primary)"/>
<stop offset="1" stop-color="var(--color-primary)" stop-opacity="0.2"/>
</linearGradient>
</defs>
</svg>
