<svg width="52" height="52" viewBox="0 0 52 52" fill="none" xmlns="http://www.w3.org/2000/svg">
<path d="M1 26.9717V15.5207C1 12.5389 2.81965 9.88274 5.58651 8.83033L25.3783 1.31318C28.4692 0.135496 31.7845 2.44083 31.7845 5.77343V15.2951M12.217 25.9443H29.6657M39.7361 29.8281C38.6892 30.8555 38.0909 32.3338 38.2405 33.9125C38.4648 36.6186 40.9326 38.5981 43.6247 38.5981H48.3607V41.5799C48.3607 46.7668 44.1481 51.0015 38.9883 51.0015H10.3724C5.21261 51.0015 1 46.7668 1 41.5799V24.7165C1 19.5297 5.21261 15.295 10.3724 15.295H38.9883C44.1481 15.295 48.3607 19.5297 48.3607 24.7165V28.3248H43.3255C41.9296 28.3248 40.6584 28.8759 39.7361 29.8281ZM51 30.8809V36.0429C51 37.421 49.9032 38.5485 48.5073 38.5986H43.6217C40.9296 38.5986 38.4619 36.6191 38.2375 33.9129C38.088 32.3343 38.6862 30.8559 39.7331 29.8286C40.6554 28.8764 41.9267 28.3252 43.3226 28.3252H48.5073C49.9032 28.3753 51 29.5028 51 30.8809Z" stroke="url(#paint0_linear_1176_1699)" stroke-opacity="0.7" stroke-width="2" stroke-linecap="round" stroke-linejoin="round"/>
<defs>
<linearGradient id="paint0_linear_1176_1699" x1="51" y1="26.0015" x2="1" y2="26.0015" gradientUnits="userSpaceOnUse">
<stop stop-color="var(--color-primary)"/>
<stop offset="1" stop-color="var(--color-primary)" stop-opacity="0.2"/>
</linearGradient>
</defs>
</svg>
