<svg width="24" height="24" viewBox="0 0 24 24" fill="none" xmlns="http://www.w3.org/2000/svg">
<path d="M4.97871 11.4028C4.97871 10.8483 5.43341 10.3929 5.98695 10.3929H7.68711C8.24065 10.3929 8.71512 10.8483 8.71512 11.4226V17.8186C8.91281 17.7592 9.15005 17.6998 9.42682 17.6404C9.80243 17.5414 10.0792 17.2047 10.0792 16.8087V8.86811C10.0792 8.31366 10.5339 7.83841 11.1072 7.83841H12.8074C13.3609 7.83841 13.8354 8.29386 13.8354 8.86811V16.2543C13.8354 16.2543 14.2505 16.076 14.6657 15.8978C14.982 15.7592 15.1797 15.4622 15.1797 15.1057V6.31366C15.1797 5.7592 15.6344 5.28396 16.1879 5.28396H17.8881C18.4416 5.28396 18.8963 5.7394 18.8963 6.31366V13.5612C20.3593 12.4919 21.8617 11.2047 23.0479 9.66019C23.4038 9.20475 23.5026 8.61069 23.3049 8.05623C21.1303 1.79881 14.3098 -1.50812 8.04296 0.670094C1.79584 2.84831 -1.50564 9.68 0.66899 15.9572C0.906223 16.6701 1.22253 17.3434 1.59815 17.9968C1.89469 18.5117 2.44823 18.8087 3.04131 18.7493C3.35762 18.7295 3.75301 18.6899 4.24724 18.6305C4.68217 18.5909 4.99848 18.2146 4.99848 17.779L4.97871 11.4028Z" fill="var(--color-secondary)" fill-opacity="0.8"/>
<path d="M4.95898 21.6998C10.3165 25.6008 17.8091 24.4127 21.7036 19.0464C23.1863 16.987 23.9969 14.5117 23.9969 11.9771C23.9969 11.6998 23.9771 11.4226 23.9573 11.1454C19.5883 17.6998 11.5026 20.7691 4.95898 21.6998Z" fill="var(--color-secondary)" fill-opacity="0.3"/>
</svg>
